{"title":"Serious Moonlight.2009.DVDRip.XViD.AC3(5.1).SWESUB.avi","uid":5524557,"size":1471421426,"categoryP":"video","categoryS":"movies","magnet":"?xt=urn:btih:0ee296db67ed164d0e665e447fc7804ae0934cc4&amp;dn=Serious+Moonlight.2009.DVDRip.XViD.AC3%285.1%29.SWESUB.avi&amp;tr=udp%3A%2F%2Ftracker.openbittorrent.com%3A80&amp;tr=udp%3A%2F%2Fopen.demonii.com%3A1337&amp;tr=udp%3A%2F%2Ftracker.coppersurfer.tk%3A6969&amp;tr=udp%3A%2F%2Fexodus.desync.com%3A6969","seeders":1,"leechers":0,"uploader":"Zen_Bud","files":-1,"time":1272732705,"description":"General\nComplete name                    : Serious Moonlight.avi\nFormat                           : AVI\nFormat/Info                      : Audio Video Interleave\nFile size                        : 1.37 GiB\nDuration                         : 1h 20mn\nOverall bit rate                 : 2 433 Kbps\n\nVideo\nID                               : 0\nFormat                           : MPEG-4 Visual\nCodec ID/Hint                    : XviD\nDuration                         : 1h 20mn\nBit rate                         : 1 974 Kbps\nWidth                            : 720 pixels\nHeight                           : 572 pixels\nDisplay aspect ratio             : 16:9\nResolution                       : 8 bits\nColorimetry                      : 4:2:0\nBits/(Pixel*Frame)               : 0.192\nStream size                      : 1.11 GiB (81%)\nWriting library                  : XviD 1.1.2 (UTC 2006-11-01)\n\nAudio\nID                               : 1\nFormat                           : AC-3\nDuration                         : 1h 20mn\nBit rate mode                    : Constant\nBit rate                         : 448 Kbps\nChannel(s)                       : 6 channels\nChannel positions                : Front: L C R, Side: L R, LFE\nSampling rate                    : 48.0 KHz\nStream size                      : 258 MiB (18%)\n\n\n","torrent":{"xt":"urn:btih:0ee296db67ed164d0e665e447fc7804ae0934cc4","amp;dn":"Serious+Moonlight.2009.DVDRip.XViD.AC3%285.1%29.SWESUB.avi","amp;tr":["udp%3A%2F%2Ftracker.openbittorrent.com%3A80","udp%3A%2F%2Fopen.demonii.com%3A1337","udp%3A%2F%2Ftracker.coppersurfer.tk%3A6969","udp%3A%2F%2Fexodus.desync.com%3A6969"],"infoHash":"0ee296db67ed164d0e665e447fc7804ae0934cc4","infoHashBuffer":{"type":"Buffer","data":[14,226,150,219,103,237,22,77,14,102,94,68,127,199,128,74,224,147,76,196]},"announce":[],"urlList":[]}}